<mxfile host="app.diagrams.net" modified="2024-03-22T08:47:23.033Z" agent="Mozilla/5.0 (Windows NT 10.0; Win64; x64; rv:109.0) Gecko/20100101 Firefox/115.0" version="24.0.7" etag="lEBmsxVEoKHdKu-MuzGt" type="github">
  <diagram name="Page-1" id="TnBni6jtpMmz1qx0MiXC">
    <mxGraphModel>
      <root>
        <mxCell id="0" />
        <mxCell id="1" parent="0" />
      </root>
    </mxGraphModel>
  </diagram>
</mxfile>
